<?xml version="1.0" encoding="utf-8"?>
<!-- Generator: Adobe Illustrator 19.2.0, SVG Export Plug-In . SVG Version: 6.00 Build 0)  -->
<svg version="1.1" id="Layer_1" xmlns="http://www.w3.org/2000/svg" xmlns:xlink="http://www.w3.org/1999/xlink" x="0px" y="0px"
	 viewBox="0 0 385.3 202.7" style="enable-background:new 0 0 385.3 202.7;" xml:space="preserve">
<style type="text/css">
	.st0{fill:#D1D3D4;}
</style>
<path class="st0" d="M99.3,9.5c0,0.5,0,1,0,1.5c0,59,0,117.9,0,176.9c0,0.5,0,1,0,1.5c-30,0-60,0-90,0c0-60,0-120,0-180
	C39.3,9.5,69.3,9.5,99.3,9.5z"/>
<path class="st0" d="M279.3,189.5c0-0.5,0-1,0-1.5c0-59,0-117.9,0-176.9c0-0.5,0-1,0-1.5c30,0,60,0,90,0c0,60,0,120,0,180
	C339.3,189.5,309.3,189.5,279.3,189.5z"/>
<path class="st0" d="M147.6,64c3.2,3.6,6.3,7,9.3,10.4c2,2.3,4.1,4.5,6.1,6.8c0.3,0.4,0.7,0.9,1.1,1c1,0.3,2.1,0.7,3,0.5
	c1.2-0.2,1.6-1.5,1.4-2.6c-0.3-2.4-0.6-4.8-1.1-7.2c-1.8-9.9-3.7-19.8-5.5-29.6c0-0.2,0-0.4-0.1-0.7c0.5,0.2,0.9,0.4,1.2,0.5
	c2.7,1.4,5.5,2.9,8.2,4.2c2.9,1.4,4.6,0.8,6.1-2c3.9-7.3,7.8-14.5,11.8-22c0.3,0.6,0.6,1,0.8,1.4c3.7,6.8,7.3,13.6,10.9,20.4
	c1.7,3.1,3.3,3.7,6.5,2.1c2.6-1.3,5.2-2.7,7.7-4c0.4-0.2,0.8-0.4,1.5-0.7c-0.6,3.3-1.2,6.3-1.7,9.4c-1.6,8.6-3.3,17.3-4.9,25.9
	c-0.2,1-0.2,2-0.1,2.9c0.2,1.9,1.7,2.8,3.5,2c0.8-0.4,1.5-1,2.1-1.6c4.9-5.4,9.7-10.8,14.5-16.2c0.2-0.2,0.4-0.5,0.9-0.9
	c0.6,2,1.1,3.9,1.6,5.7c0.2,0.8,0.5,1.5,0.7,2.3c0.7,2.5,2,3.2,4.5,2.7c5.9-1.2,11.7-2.5,17.6-3.7c0.3-0.1,0.6-0.1,1.2-0.2
	c-0.6,2.1-1.1,4-1.6,5.9c-1.4,5.1-2.8,10.2-4.2,15.3c-0.8,2.9-0.4,3.5,2.2,4.7c2.1,0.9,4.2,1.9,6.5,3c-0.8,0.7-1.4,1.2-2.1,1.8
	c-10.3,8.3-20.5,16.6-30.8,25c-2.7,2.2-3,3.3-2,6.6c0.8,2.5,1.5,5.1,2.3,7.6c0.1,0.2,0.1,0.4,0.1,0.7c-3.2-0.4-6.3-0.8-9.5-1.3
	c-7.7-1.1-15.4-2.2-23.1-3.2c-2.2-0.3-3.7,1.1-3.6,3.4c0.2,9.4,0.5,18.7,0.7,28.1c0.1,2.2,0,4.4,0,6.7c-1.8,0-3.5,0-5.1,0
	c0-2.8-0.1-5.6,0-8.4c0.2-5.6,0.5-11.2,0.7-16.9c0.1-3,0.2-6.1,0.4-9.1c0.1-2.6-1.3-4.1-3.8-3.7c-6.4,0.8-12.7,1.8-19,2.6
	c-4.4,0.6-8.9,1.2-13.5,1.9c0.9-2.9,1.7-5.6,2.5-8.3c1-3.4,0.7-4.5-2-6.7c-10.7-8.7-21.3-17.3-32-26c-0.2-0.2-0.4-0.4-0.8-0.7
	c2.2-1,4.3-2,6.4-3c2.7-1.2,3.1-1.8,2.3-4.8c-1.8-6.7-3.7-13.4-5.5-20.1c-0.1-0.3-0.1-0.5-0.2-1c2.2,0.5,4.3,0.9,6.4,1.3
	c4.1,0.9,8.2,1.8,12.3,2.6c2.5,0.5,3.7-0.3,4.5-2.8C146,69.4,146.8,66.9,147.6,64z"/>
<g>
	<path class="st0" d="M269,11.5v176H109.9v-176H269 M271,9.5H107.9v180H271V9.5L271,9.5z"/>
</g>
</svg>
